<svg preserveAspectRatio="none" overflow="visible" style="display: block;" width="62.0931" height="59.1683" viewBox="0 0 62.0931 59.1683" fill="none" xmlns="http://www.w3.org/2000/svg">
<path id="Union" d="M29.0876 1.11847C29.8239 -0.372823 32.2692 -0.372826 33.0056 1.11847L41.4157 18.1614L60.2214 20.8919C61.0447 21.0121 61.7283 21.5887 61.986 22.3792C62.2438 23.17 62.0274 24.0352 61.4333 24.6185L47.8268 37.8821L51.0397 56.6146C51.1795 57.4337 50.8434 58.262 50.1706 58.7513C49.7906 59.0287 49.3385 59.1683 48.8864 59.1683C48.5391 59.1683 48.1897 59.0855 47.8708 58.9173L31.0466 50.0726L14.2243 58.9153C13.4904 59.3039 12.5972 59.2407 11.9245 58.7493C11.2517 58.26 10.9156 57.4318 11.0554 56.6126L14.2683 37.8792L0.659856 24.6185C0.0657061 24.0374 -0.150635 23.1678 0.107121 22.3792C0.364881 21.5908 1.04845 21.0121 1.87177 20.8919L20.6774 18.1614L29.0876 1.11847Z" fill="url(#paint0_linear_0_4)"/>
<defs>
<linearGradient id="paint0_linear_0_4" x1="-6.40284e-10" y1="29.5841" x2="62.0931" y2="29.5841" gradientUnits="userSpaceOnUse">
<stop stop-color="#FF701E"/>
<stop offset="0.49" stop-color="#FF9050"/>
<stop offset="1" stop-color="#FF701E"/>
</linearGradient>
</defs>
</svg>
